<svg xmlns="http://www.w3.org/2000/svg" width="1680" height="1188" viewBox="0 0 1680 1188" role="img" aria-labelledby="title desc">
  <title id="title">NEXAH Executive Program Board — From Architecture to Execution</title>
  <desc id="desc">A printable A3 landscape program board distinguishing completed, active, strategic, pending, risks, and opportunities for the next 3 to 12 months.</desc>
  <defs>
    <style>
      text { font-family: Inter, Avenir, Helvetica, Arial, sans-serif; }
      .eyebrow { font-size: 16px; font-weight: 700; letter-spacing: 1.5px; }
      .title { font-size: 42px; font-weight: 700; fill: #152238; }
      .subtitle { font-size: 20px; font-weight: 400; fill: #536174; }
      .section { font-size: 22px; font-weight: 700; }
      .item { font-size: 17px; font-weight: 500; fill: #26364d; }
      .small { font-size: 14px; font-weight: 600; fill: #536174; }
      .priority-number { font-size: 28px; font-weight: 700; }
      .priority-title { font-size: 16px; font-weight: 700; fill: #152238; }
      .roadmap-time { font-size: 16px; font-weight: 700; }
      .roadmap-copy { font-size: 14px; font-weight: 500; fill: #536174; }
      .footer { font-size: 14px; font-weight: 700; fill: #536174; }
    </style>
  </defs>

  <rect width="1680" height="1188" fill="#ffffff"/>
  <rect x="18" y="18" width="1644" height="1152" fill="none" stroke="#aab8c8" stroke-width="2"/>

  <!-- Header -->
  <text x="58" y="62" class="eyebrow" fill="#1457a6">NEXAH EXECUTIVE PROGRAM BOARD · 2026-07-25</text>
  <text x="58" y="112" class="title">FROM ARCHITECTURE TO EXECUTION</text>
  <text x="58" y="148" class="subtitle">Maximize impact through navigation, reproducibility, public delivery, scientific credibility, and stewardship.</text>

  <rect x="1250" y="52" width="372" height="96" rx="16" fill="#f2f6fb" stroke="#1457a6" stroke-width="2"/>
  <text x="1276" y="82" class="eyebrow" fill="#1457a6">CURRENT PHASE</text>
  <text x="1276" y="112" font-size="21" fill="#152238" font-weight="700">ORIENTATION INFRASTRUCTURE</text>
  <text x="1276" y="136" font-size="15" fill="#536174">Execution · Publication · Adoption</text>

  <line x1="58" y1="174" x2="1622" y2="174" stroke="#aab8c8" stroke-width="2"/>

  <!-- Top priorities -->
  <text x="58" y="208" class="eyebrow" fill="#092f68">TOP PRIORITIES</text>

  <rect x="58" y="226" width="296" height="105" rx="14" fill="#f7f9fc" stroke="#1457a6" stroke-width="2"/>
  <text x="78" y="270" class="priority-number" fill="#1457a6">01</text>
  <text x="128" y="258" class="priority-title">ADOPT THE DESK</text>
  <text x="128" y="284" class="small">one maintained Orientation Surface</text>
  <text x="128" y="307" class="small">with owners and exact sources</text>

  <rect x="375" y="226" width="296" height="105" rx="14" fill="#f7f9fc" stroke="#3e7c50" stroke-width="2"/>
  <text x="395" y="270" class="priority-number" fill="#3e7c50">02</text>
  <text x="445" y="258" class="priority-title">LOCK BASELINES</text>
  <text x="445" y="284" class="small">revisions · tags · checksums</text>
  <text x="445" y="307" class="small">citation-ready frozen evidence</text>

  <rect x="692" y="226" width="296" height="105" rx="14" fill="#f7f9fc" stroke="#20a6b7" stroke-width="2"/>
  <text x="712" y="270" class="priority-number" fill="#168a99">03</text>
  <text x="762" y="258" class="priority-title">VERIFY PUBLIC DELIVERY</text>
  <text x="762" y="284" class="small">nexah.de · NEXAHEDRON</text>
  <text x="762" y="307" class="small">DNS · TLS · anonymous journeys</text>

  <rect x="1009" y="226" width="296" height="105" rx="14" fill="#f7f9fc" stroke="#6d3d91" stroke-width="2"/>
  <text x="1029" y="270" class="priority-number" fill="#6d3d91">04</text>
  <text x="1079" y="258" class="priority-title">PUBLISH THE EVIDENCE</text>
  <text x="1079" y="284" class="small">papers · reports · public talks</text>
  <text x="1079" y="307" class="small">limits visible beside results</text>

  <rect x="1326" y="226" width="296" height="105" rx="14" fill="#f7f9fc" stroke="#b98320" stroke-width="2"/>
  <text x="1346" y="270" class="priority-number" fill="#b98320">05</text>
  <text x="1396" y="258" class="priority-title">OPEN BOUNDED PATHS</text>
  <text x="1396" y="284" class="small">research · builders · education</text>
  <text x="1396" y="307" class="small">within current responsibilities</text>

  <!-- Row 1: Completed / Active / Strategic -->
  <rect x="58" y="360" width="498" height="300" rx="18" fill="#f3f8f4" stroke="#3e7c50" stroke-width="3"/>
  <rect x="58" y="360" width="498" height="54" rx="18" fill="#3e7c50"/>
  <rect x="58" y="396" width="498" height="18" fill="#3e7c50"/>
  <text x="84" y="395" class="section" fill="#ffffff">COMPLETED</text>
  <text x="84" y="446" class="item">✓ Constitution and responsibility model</text>
  <text x="84" y="478" class="item">✓ Repository Architecture</text>
  <text x="84" y="510" class="item">✓ OLS 1.0 and Kernel baseline</text>
  <text x="84" y="542" class="item">✓ Editorial OS and Library Architecture</text>
  <text x="84" y="574" class="item">✓ ORION V1 · POA-001 · POA-002</text>
  <text x="84" y="606" class="item">✓ Ecosystem Review</text>
  <text x="84" y="638" class="item">✓ Orientation Infrastructure</text>

  <rect x="591" y="360" width="498" height="300" rx="18" fill="#f2f6fb" stroke="#1457a6" stroke-width="3"/>
  <rect x="591" y="360" width="498" height="54" rx="18" fill="#1457a6"/>
  <rect x="591" y="396" width="498" height="18" fill="#1457a6"/>
  <text x="617" y="395" class="section" fill="#ffffff">ACTIVE</text>
  <text x="617" y="446" class="item">• Research and scientific validation</text>
  <text x="617" y="478" class="item">• Network and Power Systems applications</text>
  <text x="617" y="510" class="item">• ORION and Kernel stewardship</text>
  <text x="617" y="542" class="item">• Experience public release operations</text>
  <text x="617" y="574" class="item">• NEXAHEDRON release closure</text>
  <text x="617" y="606" class="item">• Library · Atlas · Are.na publication</text>
  <text x="617" y="638" class="item">• Public onboarding and documentation</text>

  <rect x="1124" y="360" width="498" height="300" rx="18" fill="#f7f2fa" stroke="#6d3d91" stroke-width="3"/>
  <rect x="1124" y="360" width="498" height="54" rx="18" fill="#6d3d91"/>
  <rect x="1124" y="396" width="498" height="18" fill="#6d3d91"/>
  <text x="1150" y="395" class="section" fill="#ffffff">STRATEGIC · 3–12 MONTHS</text>
  <text x="1150" y="446" class="item">1. Scientific papers and technical reports</text>
  <text x="1150" y="478" class="item">2. University and research collaboration</text>
  <text x="1150" y="510" class="item">3. Bounded Human studies</text>
  <text x="1150" y="542" class="item">4. Builder and contributor onboarding</text>
  <text x="1150" y="574" class="item">5. Evidence depth in existing applications</text>
  <text x="1150" y="606" class="item">6. Education and public communication</text>
  <text x="1150" y="638" class="item">7. Sustainable stewardship cadence</text>

  <!-- Row 2: Pending / Risks / Opportunities -->
  <rect x="58" y="690" width="498" height="258" rx="18" fill="#fbf7ef" stroke="#b98320" stroke-width="3"/>
  <rect x="58" y="690" width="498" height="54" rx="18" fill="#b98320"/>
  <rect x="58" y="726" width="498" height="18" fill="#b98320"/>
  <text x="84" y="725" class="section" fill="#ffffff">PENDING</text>
  <text x="84" y="776" class="item">○ Root Desk approval</text>
  <text x="84" y="808" class="item">○ POA freeze identity and citation</text>
  <text x="84" y="840" class="item">○ Connected Core revision decision</text>
  <text x="84" y="872" class="item">○ Public deployment verification</text>
  <text x="84" y="904" class="item">○ NEXAHEDRON public repository</text>
  <text x="84" y="936" class="item">○ Archive and visual status metadata</text>

  <rect x="591" y="690" width="498" height="258" rx="18" fill="#fbf2f2" stroke="#a13d3d" stroke-width="3"/>
  <rect x="591" y="690" width="498" height="54" rx="18" fill="#a13d3d"/>
  <rect x="591" y="726" width="498" height="18" fill="#a13d3d"/>
  <text x="617" y="725" class="section" fill="#ffffff">RISKS</text>
  <text x="617" y="776" class="item">! Knowledge and decision concentration</text>
  <text x="617" y="808" class="item">! Repository revision drift</text>
  <text x="617" y="840" class="item">! Public deployment dependencies</text>
  <text x="617" y="872" class="item">! Scientific claim inflation</text>
  <text x="617" y="904" class="item">! Maintenance capacity</text>
  <text x="617" y="936" class="item">! Weak external replication or review</text>

  <rect x="1124" y="690" width="498" height="258" rx="18" fill="#eef8f8" stroke="#168a99" stroke-width="3"/>
  <rect x="1124" y="690" width="498" height="54" rx="18" fill="#168a99"/>
  <rect x="1124" y="726" width="498" height="18" fill="#168a99"/>
  <text x="1150" y="725" class="section" fill="#ffffff">OPPORTUNITIES</text>
  <text x="1150" y="776" class="item">+ Open science and reproducibility</text>
  <text x="1150" y="808" class="item">+ Power Systems / IEEE collaboration</text>
  <text x="1150" y="840" class="item">+ Human orientation studies</text>
  <text x="1150" y="872" class="item">+ University teaching and workshops</text>
  <text x="1150" y="904" class="item">+ Builder participation</text>
  <text x="1150" y="936" class="item">+ Library and public knowledge pathways</text>

  <!-- Roadmap -->
  <text x="58" y="990" class="eyebrow" fill="#092f68">EXECUTION HORIZON</text>
  <line x1="58" y1="1027" x2="1622" y2="1027" stroke="#aab8c8" stroke-width="3"/>
  <circle cx="120" cy="1027" r="11" fill="#1457a6"/>
  <circle cx="540" cy="1027" r="11" fill="#20a6b7"/>
  <circle cx="990" cy="1027" r="11" fill="#6d3d91"/>
  <circle cx="1500" cy="1027" r="11" fill="#3e7c50"/>

  <text x="120" y="1062" class="roadmap-time" fill="#1457a6" text-anchor="middle">30 DAYS</text>
  <text x="120" y="1085" class="roadmap-copy" text-anchor="middle">operational truth</text>

  <text x="540" y="1062" class="roadmap-time" fill="#168a99" text-anchor="middle">90 DAYS</text>
  <text x="540" y="1085" class="roadmap-copy" text-anchor="middle">enterable and citable</text>

  <text x="990" y="1062" class="roadmap-time" fill="#6d3d91" text-anchor="middle">6 MONTHS</text>
  <text x="990" y="1085" class="roadmap-copy" text-anchor="middle">external use and review</text>

  <text x="1500" y="1062" class="roadmap-time" fill="#3e7c50" text-anchor="middle">12 MONTHS</text>
  <text x="1500" y="1085" class="roadmap-copy" text-anchor="middle">durable stewardship and impact</text>

  <!-- Footer -->
  <line x1="58" y1="1120" x2="1622" y2="1120" stroke="#aab8c8" stroke-width="2"/>
  <text x="58" y="1150" class="footer">EXECUTIVE PROGRAM REVIEW · INFORMATIVE STRATEGIC OVERVIEW</text>
  <text x="1622" y="1150" class="footer" text-anchor="end">EXECUTION, NOT INVENTION · EXISTING ARCHITECTURE REMAINS STABLE</text>
</svg>
